<svg width="24" height="24" viewBox="0 0 24 24" fill="none" xmlns="http://www.w3.org/2000/svg">
<path fill-rule="evenodd" clip-rule="evenodd" d="M19.7659 8.526L21.4551 7.75315C20.9123 6.48605 20.1305 5.34253 19.1594 4.38861C17.2841 2.54635 14.8005 1.5 12.1603 1.5C6.54889 1.5 1.99992 6.20101 1.99992 12C1.99992 17.799 6.54889 22.5 12.1603 22.5C14.8069 22.5 17.296 21.4485 19.1727 19.5983C20.1666 18.6185 20.961 17.4399 21.5027 16.1339L19.8048 15.3817C19.3617 16.4498 18.7115 17.4145 17.8976 18.217C16.3611 19.7318 14.3272 20.5909 12.1603 20.5909C7.56915 20.5909 3.84727 16.7446 3.84727 12C3.84727 7.25537 7.56915 3.40909 12.1603 3.40909C14.322 3.40909 16.3513 4.26408 17.8867 5.77231C18.6819 6.55352 19.3219 7.48965 19.7659 8.526ZM8.00993 12.7171L10.6493 15.6463C10.832 15.8494 11.0722 15.9514 11.3124 15.9514C11.5516 15.9524 11.7918 15.8514 11.9745 15.6493C12.3417 15.2412 12.3378 14.5854 11.9715 14.1783L10.7109 12.9806L21.169 12.9716C21.6862 12.9716 22.1616 12.5436 22.1616 11.9711C22.1616 11.3935 21.6852 10.9904 21.169 10.9904L10.7109 10.9995L11.9715 9.78103C12.3368 9.37587 12.3398 8.71614 11.9745 8.31099C11.6062 7.90287 11.0156 7.90683 10.6493 8.31396C10.6493 8.31396 8.00894 11.2441 8.00695 11.2461C7.82431 11.4492 7.73299 11.7147 7.73497 11.9801C7.73497 12.2466 7.8253 12.5111 8.00993 12.7171Z" fill="#1F7AE0"/>
<mask id="mask0_222_2129" style="mask-type:alpha" maskUnits="userSpaceOnUse" x="2" y="1" width="21" height="22">
<path fill-rule="evenodd" clip-rule="evenodd" d="M19.7659 8.526L21.4551 7.75315C20.9123 6.48605 20.1305 5.34253 19.1594 4.38861C17.2841 2.54635 14.8005 1.5 12.1603 1.5C6.54889 1.5 1.99992 6.20101 1.99992 12C1.99992 17.799 6.54889 22.5 12.1603 22.5C14.8069 22.5 17.296 21.4485 19.1727 19.5983C20.1666 18.6185 20.961 17.4399 21.5027 16.1339L19.8048 15.3817C19.3617 16.4498 18.7115 17.4145 17.8976 18.217C16.3611 19.7318 14.3272 20.5909 12.1603 20.5909C7.56915 20.5909 3.84727 16.7446 3.84727 12C3.84727 7.25537 7.56915 3.40909 12.1603 3.40909C14.322 3.40909 16.3513 4.26408 17.8867 5.77231C18.6819 6.55352 19.3219 7.48965 19.7659 8.526ZM8.00993 12.7171L10.6493 15.6463C10.832 15.8494 11.0722 15.9514 11.3124 15.9514C11.5516 15.9524 11.7918 15.8514 11.9745 15.6493C12.3417 15.2412 12.3378 14.5854 11.9715 14.1783L10.7109 12.9806L21.169 12.9716C21.6862 12.9716 22.1616 12.5436 22.1616 11.9711C22.1616 11.3935 21.6852 10.9904 21.169 10.9904L10.7109 10.9995L11.9715 9.78103C12.3368 9.37587 12.3398 8.71614 11.9745 8.31099C11.6062 7.90287 11.0156 7.90683 10.6493 8.31396C10.6493 8.31396 8.00894 11.2441 8.00695 11.2461C7.82431 11.4492 7.73299 11.7147 7.73497 11.9801C7.73497 12.2466 7.8253 12.5111 8.00993 12.7171Z" fill="white"/>
</mask>
<g mask="url(#mask0_222_2129)">
</g>
</svg>
